<svg width="201" height="47" viewBox="0 0 201 47" fill="none" xmlns="http://www.w3.org/2000/svg">
<path d="M32.5579 32.6957H46.802V47H32.5579V32.6957Z" fill="#464646"/>
<path d="M0 47H28.4882V37.6H9.36041V9.40001H37.4416V28.6087H46.802V0H0V47Z" fill="#464646"/>
<path d="M69.9186 24.622C69.9186 22.7044 70.2775 20.9773 70.9952 19.4405C71.713 17.8902 72.7016 16.571 73.961 15.4831C75.234 14.3815 76.7371 13.5383 78.4706 12.9536C80.2175 12.3552 82.1066 12.056 84.138 12.056C85.8849 12.056 87.4897 12.26 88.9523 12.668C90.4148 13.0624 91.681 13.5791 92.7509 14.2183V12.4844H98.7636V46.388H92.7509V34.2912C92.2227 34.6584 91.6201 35.0052 90.943 35.3316C90.2658 35.658 89.5413 35.9436 88.7694 36.1884C87.9975 36.4332 87.185 36.6236 86.3318 36.7595C85.4922 36.9091 84.639 36.9839 83.7723 36.9839C81.741 36.9839 79.8722 36.6848 78.1658 36.0864C76.4731 35.488 75.0173 34.6448 73.7985 33.5569C72.5797 32.4689 71.6249 31.1701 70.9343 29.6606C70.2572 28.1374 69.9186 26.4579 69.9186 24.622ZM76.2361 24.622C76.2361 25.5875 76.4257 26.4987 76.8049 27.3555C77.1976 28.2122 77.7528 28.967 78.4706 29.6198C79.2018 30.259 80.0753 30.769 81.091 31.1497C82.1202 31.5169 83.2713 31.7005 84.5443 31.7005C85.3568 31.7005 86.149 31.6257 86.9209 31.4761C87.6928 31.3129 88.4241 31.0885 89.1148 30.803C89.819 30.5174 90.4758 30.1706 91.0852 29.7626C91.7081 29.3546 92.2633 28.899 92.7509 28.3958V20.0525C91.5185 19.0734 90.2455 18.3798 88.9319 17.9718C87.6319 17.5502 86.298 17.3394 84.9302 17.3394C83.5489 17.3394 82.3166 17.5298 81.2332 17.9106C80.1633 18.2778 79.256 18.7878 78.5112 19.4405C77.7799 20.0933 77.2179 20.8617 76.8252 21.7457C76.4324 22.6296 76.2361 23.5884 76.2361 24.622Z" fill="#464646"/>
<path d="M108.439 24.52C108.439 22.7928 108.785 21.1745 109.475 19.6649C110.179 18.1554 111.175 16.8362 112.461 15.7075C113.761 14.5787 115.326 13.6879 117.154 13.0352C118.995 12.3824 121.061 12.056 123.349 12.056C125.638 12.056 127.696 12.3824 129.525 13.0352C131.366 13.6879 132.93 14.5787 134.217 15.7075C135.517 16.8362 136.512 18.1554 137.203 19.6649C137.907 21.1745 138.259 22.7928 138.259 24.52C138.259 26.2471 137.907 27.8655 137.203 29.375C136.512 30.8846 135.517 32.2037 134.217 33.3325C132.93 34.4612 131.366 35.352 129.525 36.0048C127.696 36.6576 125.638 36.9839 123.349 36.9839C121.061 36.9839 118.995 36.6576 117.154 36.0048C115.326 35.352 113.761 34.4612 112.461 33.3325C111.175 32.2037 110.179 30.8846 109.475 29.375C108.785 27.8655 108.439 26.2471 108.439 24.52ZM114.757 24.52C114.757 25.4855 114.946 26.4035 115.326 27.2739C115.718 28.1306 116.28 28.8922 117.012 29.5586C117.756 30.2114 118.657 30.735 119.713 31.1293C120.783 31.5101 121.995 31.7005 123.349 31.7005C124.704 31.7005 125.909 31.5101 126.965 31.1293C128.035 30.735 128.935 30.2114 129.667 29.5586C130.412 28.8922 130.974 28.1306 131.353 27.2739C131.745 26.4035 131.942 25.4855 131.942 24.52C131.942 23.5544 131.745 22.6364 131.353 21.7661C130.974 20.8957 130.412 20.1341 129.667 19.4813C128.935 18.815 128.035 18.2914 126.965 17.9106C125.909 17.5162 124.704 17.319 123.349 17.319C121.995 17.319 120.783 17.5162 119.713 17.9106C118.657 18.2914 117.756 18.815 117.012 19.4813C116.28 20.1341 115.718 20.8957 115.326 21.7661C114.946 22.6364 114.757 23.5544 114.757 24.52Z" fill="#464646"/>
<path d="M148.077 12.4844H154.09V15.9523C155.417 14.9595 156.819 14.1027 158.295 13.3819C159.771 12.6612 161.24 12.1104 162.703 11.7296L164.47 17.2578C162.154 17.489 160.116 18.0126 158.356 18.8286C156.609 19.6309 155.187 20.7665 154.09 22.2352V36.5556H148.077V12.4844Z" fill="#464646"/>
<path d="M171.566 24.4384C171.566 22.8064 171.898 21.2493 172.561 19.7669C173.225 18.271 174.18 16.9518 175.425 15.8095C176.671 14.6671 178.195 13.7559 179.996 13.076C181.811 12.396 183.869 12.056 186.171 12.056C188.46 12.056 190.518 12.4028 192.346 13.0964C194.188 13.7763 195.746 14.7147 197.019 15.9115C198.305 17.1082 199.287 18.5158 199.964 20.1341C200.655 21.7525 201 23.4864 201 25.3359C201 25.5671 200.993 25.8187 200.98 26.0907C200.98 26.3491 200.966 26.5871 200.939 26.8047H178.269C178.527 27.5255 178.94 28.185 179.508 28.7834C180.091 29.3818 180.815 29.8986 181.682 30.3338C182.549 30.769 183.551 31.1089 184.688 31.3537C185.826 31.5849 187.085 31.7005 188.467 31.7005C189.848 31.7005 191.222 31.5577 192.59 31.2721C193.958 30.9729 195.265 30.599 196.511 30.1502L198.542 34.7604C197.757 35.1276 196.958 35.454 196.145 35.7396C195.346 36.0116 194.506 36.2428 193.626 36.4332C192.76 36.61 191.845 36.7459 190.884 36.8411C189.936 36.9363 188.934 36.9839 187.878 36.9839C185.183 36.9839 182.82 36.6576 180.788 36.0048C178.757 35.352 177.057 34.4612 175.69 33.3325C174.322 32.2037 173.293 30.8777 172.602 29.3546C171.911 27.8315 171.566 26.1927 171.566 24.4384ZM194.622 22.0924C194.405 21.4261 194.066 20.8073 193.606 20.2361C193.159 19.6513 192.597 19.1481 191.92 18.7266C191.243 18.2914 190.457 17.9514 189.564 17.7066C188.67 17.4618 187.688 17.3394 186.618 17.3394C185.481 17.3394 184.445 17.4686 183.51 17.727C182.576 17.9854 181.756 18.3322 181.052 18.7674C180.348 19.2025 179.759 19.7057 179.285 20.2769C178.825 20.8481 178.486 21.4533 178.269 22.0924H194.622Z" fill="#464646"/>
</svg>
